PathFileType	4	(X/Y/Z)	c:/Users/goper/Files/vsCode/490R/osim_files/C11/C11_Slow_05.trc
DataRate	CameraRate	NumFrames	NumMarkers	Units                	OrigDataRate	OrigDataStartFrame	OrigNumFrames
120.00	120.00	8	36	mm	120.0	1172	1562
                Frame#	Time	LPSIS			LASIS			LTH1			LTH2			LTH3			LTH4			LLFE			LMFE			LSH1			LSH2			LSH3			LSH4			LLMAL			LMMAL			LCAL			LMTP5			LTOE			LMTP1			RPSIS			RASIS			RTH1			RTH2			RTH3			RTH4			RLFE			RMFE			RSH1			RSH2			RSH3			RSH4			RLMAL			RMMAL			RCAL			RMTP1			RTOE			RMTP5		
		X1	Y1	Z1	X2	Y2	Z2	X3	Y3	Z3	X4	Y4	Z4	X5	Y5	Z5	X6	Y6	Z6	X7	Y7	Z7	X8	Y8	Z8	X9	Y9	Z9	X10	Y10	Z10	X11	Y11	Z11	X12	Y12	Z12	X13	Y13	Z13	X14	Y14	Z14	X15	Y15	Z15	X16	Y16	Z16	X17	Y17	Z17	X18	Y18	Z18	X19	Y19	Z19	X20	Y20	Z20	X21	Y21	Z21	X22	Y22	Z22	X23	Y23	Z23	X24	Y24	Z24	X25	Y25	Z25	X26	Y26	Z26	X27	Y27	Z27	X28	Y28	Z28	X29	Y29	Z29	X30	Y30	Z30	X31	Y31	Z31	X32	Y32	Z32	X33	Y33	Z33	X34	Y34	Z34	X35	Y35	Z35	X36	Y36	Z36

1172	9.75833	-3819.06836	1007.08466	221.13931	-3995.10986	1017.91162	306.69455	-3935.28027	620.95551	317.33966	-3948.27075	572.23248	311.02811	-3997.16968	624.95898	328.54086	-3998.91626	579.46185	318.56171	0.00000	0.00000	0.00000	-3977.04272	508.11234	309.92844	-3921.68506	410.64035	319.09723	0.00000	0.00000	0.00000	0.00000	0.00000	0.00000	-3961.54224	349.48080	308.01572	-3888.67993	105.29420	233.07922	-3931.03369	128.51921	147.39563	-3835.99023	74.28098	174.42986	-3995.52222	50.65874	272.74747	-4080.21973	69.90096	214.55440	-4043.83203	58.74176	164.44267	0.00000	0.00000	0.00000	-4001.24512	1001.76520	72.04106	-4037.80029	645.41418	13.81304	0.00000	0.00000	0.00000	-4099.98486	667.27710	23.71718	-4109.26367	625.60260	27.02327	-4101.11719	538.94934	36.73926	-4074.91089	518.48547	144.02010	-4048.42773	451.79309	18.64969	0.00000	0.00000	0.00000	-3998.72437	492.15573	12.39767	0.00000	0.00000	0.00000	0.00000	0.00000	0.00000	-3823.43384	233.81470	116.54518	0.00000	0.00000	0.00000	-3876.80078	106.48926	108.42666	-3891.68774	112.02196	60.09605	-3839.57080	111.88020	0.18389
1173	9.76667	-3824.45483	1007.69476	219.71909	-3999.23682	1017.84125	308.12177	-3937.07593	621.13898	317.66629	-3949.64258	572.39160	311.43311	-3998.91919	624.83911	329.34229	-4000.30225	579.23352	319.29688	0.00000	0.00000	0.00000	-3978.39136	508.03091	310.52728	-3922.90063	410.82306	319.49146	0.00000	0.00000	0.00000	0.00000	0.00000	0.00000	-3962.49414	349.42877	308.39749	-3888.73999	105.37325	233.22293	-3931.15576	128.66240	147.53122	-3836.10669	74.53503	174.53873	-3995.54053	50.62250	272.80328	-4080.21826	69.79381	214.59512	-4043.83813	58.75313	164.48691	0.00000	0.00000	0.00000	-4008.96484	1002.29163	73.58549	0.00000	0.00000	0.00000	0.00000	0.00000	0.00000	-4111.41797	670.12109	25.65432	-4121.03760	628.64850	29.18507	-4113.06396	541.64850	38.55084	-4085.27197	520.41693	145.18282	0.00000	0.00000	0.00000	0.00000	0.00000	0.00000	-4011.82764	492.13107	12.53601	0.00000	0.00000	0.00000	0.00000	0.00000	0.00000	-3843.45825	228.51534	114.74851	-3747.90283	249.78954	74.17452	-3901.44507	103.21008	108.93193	-3916.62524	108.21297	60.73456	-3865.07617	105.55749	0.35723
1174	9.77500	-3831.14502	1009.01593	219.76874	-4003.16455	1017.61597	309.46530	-3938.48950	621.26746	317.86346	-3950.99170	572.43842	311.66019	-4000.49707	624.54736	329.98676	-4001.73364	579.02039	319.98178	0.00000	0.00000	0.00000	-3979.72485	507.88510	310.98065	-3923.85840	410.74777	319.82541	0.00000	0.00000	0.00000	0.00000	0.00000	0.00000	-3963.45801	349.39764	308.82056	-3888.85522	105.46535	233.35803	-3931.26807	128.76740	147.64270	-3831.65015	74.75818	171.94324	-3995.60254	50.63106	272.85666	-4080.22925	69.68362	214.63545	-4043.85425	58.75347	164.53644	0.00000	0.00000	0.00000	-4016.66821	1002.64618	75.11601	0.00000	0.00000	0.00000	0.00000	0.00000	0.00000	-4122.48047	672.77356	27.91865	-4132.28369	630.59363	30.18839	-4124.82031	544.23798	40.51290	-4095.46729	522.15851	146.48466	0.00000	0.00000	0.00000	0.00000	0.00000	0.00000	-4024.83398	491.87213	12.87688	0.00000	0.00000	0.00000	0.00000	0.00000	0.00000	-3863.60303	222.77496	113.16702	-3767.87231	240.22083	71.42743	-3926.39478	99.70313	109.39533	-3941.93164	104.51999	61.30395	-3890.85938	99.26665	0.46692
1175	9.78333	-3834.91284	1008.75916	216.49939	-4007.01855	1017.46161	310.76068	-3939.98926	621.37524	318.06451	-3952.60278	572.51892	312.03476	-4002.15161	624.26099	330.74249	-4003.34985	578.89893	320.71884	0.00000	0.00000	0.00000	-3981.19336	507.77167	311.61429	-3924.91992	410.83612	320.13544	0.00000	0.00000	0.00000	0.00000	0.00000	0.00000	-3964.40845	349.35300	309.18884	-3888.93140	105.52101	233.49135	-3931.36230	128.85905	147.77585	-3831.63940	74.88780	172.01434	-3997.28955	51.74741	274.51398	-4080.22607	69.55399	214.68031	-4043.87671	58.77917	164.59145	0.00000	0.00000	0.00000	-4024.36157	1002.88055	76.65348	0.00000	0.00000	0.00000	0.00000	0.00000	0.00000	-4133.15332	675.20416	30.37299	-4142.95654	633.23566	34.30229	-4136.19482	546.59918	42.69778	-4105.23584	523.68121	147.88431	0.00000	0.00000	0.00000	0.00000	0.00000	0.00000	-4037.53101	491.18143	13.26939	0.00000	0.00000	0.00000	-3867.21167	221.11259	19.60351	-3884.14868	216.87428	111.78432	-3788.47461	230.41595	68.95583	-3951.62305	96.30305	109.82868	-3967.58472	101.06800	61.82266	-3917.01831	93.22157	0.62224
1176	9.79167	-3840.06738	1009.20978	214.86060	-4010.74805	1017.23993	312.02792	-3941.85278	621.36682	318.26010	-3954.08984	572.43439	312.31570	-4003.61206	623.84351	331.32129	-4004.73364	578.59094	321.23407	0.00000	0.00000	0.00000	-3982.54614	507.53839	312.05746	-3926.22168	411.01474	320.49390	0.00000	0.00000	0.00000	0.00000	0.00000	0.00000	-3965.34180	349.30524	309.50311	-3889.04370	105.53072	233.60837	-3931.47485	128.95277	147.91264	-3831.70264	74.97138	172.12262	-3995.60278	50.48306	272.99219	-4080.23218	69.46952	214.72069	-4043.88867	58.77359	164.63330	0.00000	0.00000	0.00000	-4031.92578	1002.98389	78.19862	0.00000	0.00000	0.00000	0.00000	0.00000	0.00000	-4143.30078	677.31183	32.98969	-4153.08252	635.24445	38.07107	-4147.25244	548.67584	45.15096	-4118.58496	527.24060	152.82443	0.00000	0.00000	0.00000	0.00000	0.00000	0.00000	-4050.21729	490.27582	13.79566	0.00000	0.00000	0.00000	0.00000	0.00000	0.00000	-3904.81323	211.56972	111.81215	-3809.32422	220.28816	66.72047	-3976.98535	92.89909	110.18744	-3993.37354	97.80689	62.32118	-3943.60034	87.62150	0.60554
1177	9.80000	-3846.30225	1010.41333	214.65701	-4014.29980	1016.99719	313.23251	-3943.51050	621.44299	318.32565	-3955.32300	572.39856	312.45551	-4005.22363	623.56354	331.88312	-4006.32300	578.41937	321.92426	0.00000	0.00000	0.00000	-3983.85645	507.33539	312.41379	-3927.12964	410.94763	320.70038	0.00000	0.00000	0.00000	0.00000	0.00000	0.00000	-3966.39136	349.29071	309.77658	-3889.10083	105.55963	233.66949	-3931.60693	129.00952	148.05551	-3831.85742	75.06231	172.25220	-3995.63330	50.42772	273.06259	-4080.22974	69.39023	214.76270	-4043.91333	58.76355	164.66602	0.00000	0.00000	0.00000	-4039.51758	1003.04138	79.82098	0.00000	0.00000	0.00000	0.00000	0.00000	0.00000	-4153.02832	679.11536	35.65842	-4162.96582	636.88629	40.79393	-4157.99121	550.53534	47.88382	-4127.74414	528.22150	154.91866	0.00000	0.00000	0.00000	0.00000	0.00000	0.00000	-4062.76733	489.03262	14.54805	0.00000	0.00000	0.00000	-3910.71509	206.28146	17.18504	-3925.80737	205.34206	110.66727	-3830.31592	210.13297	64.46472	-4002.47144	89.62632	110.62559	-4019.53882	94.93993	62.86047	-3970.57446	82.48172	0.68713
1178	9.80833	-3850.02759	1009.97620	211.21861	-4017.69189	1016.65265	314.37216	-3944.96729	621.47021	318.33749	-3956.88477	572.45709	312.55521	-4006.86621	623.41718	332.32867	-4007.67310	578.15271	322.34225	0.00000	0.00000	0.00000	-3985.30688	507.24460	312.88879	-3928.26538	410.97379	320.86990	0.00000	0.00000	0.00000	0.00000	0.00000	0.00000	-3967.51416	349.38120	310.05185	-3889.20825	105.67030	233.78096	0.00000	0.00000	0.00000	-3831.86890	75.26822	172.29980	-3997.41504	51.63321	274.74704	-4080.22021	69.28223	214.78963	-4043.91772	58.74873	164.69325	0.00000	0.00000	0.00000	-4046.97192	1002.92584	81.44317	0.00000	0.00000	0.00000	0.00000	0.00000	0.00000	-4162.30957	680.54675	38.38037	-4172.41113	638.15918	43.38084	-4168.40918	552.23413	50.81474	-4136.89209	529.09460	157.30444	0.00000	0.00000	0.00000	-4103.63330	420.57974	19.43079	-4075.21777	487.65225	15.54121	0.00000	0.00000	0.00000	-3932.89453	198.95221	16.48198	-3946.75195	198.95551	109.85801	-3852.09912	199.94627	62.55992	-4030.25073	87.58961	112.44083	-4045.74951	92.37385	63.41935	-3997.88477	77.94479	0.58707
1179	9.81667	-3854.84766	1010.33618	209.29620	-4021.03394	1016.30225	315.44974	-3946.75269	621.44366	318.27667	-3958.33521	572.50793	312.63422	-4008.31738	623.12030	332.71338	-4009.08984	577.91632	322.73459	0.00000	0.00000	0.00000	-3986.77612	507.08499	313.16968	-3929.40332	411.03421	320.99121	0.00000	0.00000	0.00000	0.00000	0.00000	0.00000	-3968.61353	349.41223	310.22464	-3889.31177	105.79761	233.88455	0.00000	0.00000	0.00000	-3831.96655	75.52631	172.39496	-3995.76514	50.41747	273.19748	-4080.19580	69.20286	214.81735	-4043.92334	58.72614	164.73502	0.00000	0.00000	0.00000	-4054.50439	1002.85004	83.07803	0.00000	0.00000	0.00000	0.00000	0.00000	0.00000	-4171.27246	681.69824	41.17735	-4181.49561	639.13031	45.99531	-4178.37793	553.62103	54.15223	-4145.68408	529.60266	160.04749	0.00000	0.00000	0.00000	-4118.28467	420.01413	21.32310	-4087.37769	486.15527	16.77839	0.00000	0.00000	0.00000	-3955.37427	191.98828	15.92661	-3967.84546	192.63914	109.11185	-3873.94165	189.81262	60.62371	-4055.96753	84.82315	112.87109	-4072.03076	90.14303	64.01913	-4023.91064	73.41038	-0.57959
